# xmcd CD database file
#
# Track frame offsets:
#	150
#	20380
#	39272
#	52764
#	81806
#	97861
#	120705
#	136223
#	160554
#	178210
#	194365
#	202795
#
# Disc length: 2972 seconds
#
# Revision: 4
# Processed by: cddbd v1.5.2PL0 Copyright (c) Steve Scherf et al.
# Submitted via: CDex 1.51
#
DISCID=880b9a0c
DTITLE=SNOWY WHITE'S BLUES AGENCY - Change My Life
DYEAR=1989
DGENRE=Blues
TTITLE0=Woke Up This Morning
TTITLE1=The Thrill Is Gone
TTITLE2=You Know It Ain't Right
TTITLE3=Change My Life
TTITLE4=The Agency Blues
TTITLE5=Judgement Day
TTITLE6=Ooh-Wee Baby
TTITLE7=The Rest Of My Life
TTITLE8=Parchman Farm
TTITLE9=The Agency Shuffle
TTITLE10=Another Man
TTITLE11=No Place to Go(Bonus)
EXTD=YEAR: 1989
EXTT0=
EXTT1=
EXTT2=
EXTT3=
EXTT4=
EXTT5=
EXTT6=
EXTT7=
EXTT8=
EXTT9=
EXTT10=
EXTT11=
PLAYORDER=
